<?xml version="1.0" encoding="iso-8859-1"?>
<!-- Generator: Adobe Illustrator 21.1.0, SVG Export Plug-In . SVG Version: 6.00 Build 0)  -->
<svg version="1.1" id="Layer_1" xmlns="http://www.w3.org/2000/svg" xmlns:xlink="http://www.w3.org/1999/xlink" x="0px" y="0px"
	 viewBox="0 0 24 24" enable-background="new 0 0 24 24" xml:space="preserve">
<g>
	<path fill="#303C42" d="M22,5h-5V4c0-1.1030273-0.8969727-2-2-2H9C7.8969727,2,7,2.8969727,7,4v1H2C0.8969727,5,0,5.8969727,0,7v13
		c0,1.1030273,0.8969727,2,2,2h20c1.1030273,0,2-0.8969727,2-2V7C24,5.8969727,23.1030273,5,22,5z M16,5H8V4
		c0-0.5512695,0.4487305-1,1-1h6c0.5512695,0,1,0.4487305,1,1V5z"/>
	<path fill="#5D6772" d="M2,6h20c0.5512695,0,1,0.4487305,1,1v1.166626l-10.425293,6.7034912
		c-0.3486328,0.1708984-0.8603516,0.144043-1.1166992,0.0214844L1,8.166626V7C1,6.4487305,1.4487305,6,2,6z"/>
	<path fill="#546F7A" d="M2,6h20c0.5512695,0,1,0.4487305,1,1v1.166626l-10.425293,6.7034912
		c-0.3486328,0.1708984-0.8603516,0.144043-1.1166992,0.0214844L1,8.166626V7C1,6.4487305,1.4487305,6,2,6z"/>
	<path fill="#546F7A" d="M22,21H2c-0.5512695,0-1-0.4487305-1-1V9.3551025l9.9633789,6.4036865
		C11.2773438,15.9165039,11.6352539,16,11.9985352,16c0.3505859,0,0.6958008-0.0776367,1.0009766-0.2246094
		c0.0288086-0.0117188,0.0566406-0.0258789,0.0830078-0.0429688L23,9.3552856V20C23,20.5512695,22.5512695,21,22,21z"/>
	<circle fill="#303C42" cx="12" cy="11.9990234" r="1"/>
	<linearGradient id="SVGID_1_" gradientUnits="userSpaceOnUse" x1="6.4999542" y1="3.8551483" x2="23.029129" y2="20.3843231">
		<stop  offset="0" style="stop-color:#010101;stop-opacity:0.1"/>
		<stop  offset="1" style="stop-color:#010101;stop-opacity:0"/>
	</linearGradient>
	<path fill="url(#SVGID_1_)" d="M23,20V9.3552856l-9.9174805,6.3771362c-0.0263672,0.0170898-0.0541992,0.03125-0.0830078,0.0429688
		C12.6943359,15.9223633,12.3491211,16,11.9985352,16c-0.3632813,0-0.7211914-0.0834961-1.0351563-0.2412109L1,9.3551025
		L12.6450195,21H22C22.5512695,21,23,20.5512695,23,20z"/>
	<linearGradient id="SVGID_2_" gradientUnits="userSpaceOnUse" x1="-0.5161691" y1="7.6636143" x2="24.5161686" y2="19.3363857">
		<stop  offset="0" style="stop-color:#FFFFFF;stop-opacity:0.2"/>
		<stop  offset="1" style="stop-color:#FFFFFF;stop-opacity:0"/>
	</linearGradient>
	<path fill="url(#SVGID_2_)" d="M22,5h-5V4c0-1.1030273-0.8969727-2-2-2H9C7.8969727,2,7,2.8969727,7,4v1H2
		C0.8969727,5,0,5.8969727,0,7v13c0,1.1030273,0.8969727,2,2,2h20c1.1030273,0,2-0.8969727,2-2V7C24,5.8969727,23.1030273,5,22,5z
		 M16,5H8V4c0-0.5512695,0.4487305-1,1-1h6c0.5512695,0,1,0.4487305,1,1V5z"/>
</g>
<g>
</g>
<g>
</g>
<g>
</g>
<g>
</g>
<g>
</g>
<g>
</g>
<g>
</g>
<g>
</g>
<g>
</g>
<g>
</g>
<g>
</g>
<g>
</g>
<g>
</g>
<g>
</g>
<g>
</g>
</svg>
